<svg id="Layer_1" data-name="Layer 1" xmlns="http://www.w3.org/2000/svg" viewBox="0 0 938 246.91"><defs><style>.cls-1{fill:#0362fc;}.cls-2{fill:#0245bc;}.cls-3{fill:#333;}</style></defs><polygon class="cls-1" points="730.77 6.32 866.63 6.32 933.93 123.77 867.27 240.59 730.77 240.59 799.97 123.77 730.77 6.32"/><polygon class="cls-2" points="799.97 123.77 867.27 240.59 782.49 153.29 799.97 123.77"/><path class="cls-3" d="M19.27,149.79a47.81,47.81,0,0,1-15.2-7l8.22-15.58A46.48,46.48,0,0,0,25.74,134a50.44,50.44,0,0,0,15.33,2.37q8.34,0,13.2-2.74t4.86-7.48q0-3.86-3.86-5.91a66.45,66.45,0,0,0-12.34-4.43A125.11,125.11,0,0,1,29.11,111a25,25,0,0,1-9.28-6.92q-3.93-4.6-3.93-12.2A25.66,25.66,0,0,1,20.82,76.3,31,31,0,0,1,34.78,66a56.19,56.19,0,0,1,21-3.62,70.05,70.05,0,0,1,16.69,1.93,44.2,44.2,0,0,1,13.45,5.55l-7.6,15.44a35.8,35.8,0,0,0-11-5,47.71,47.71,0,0,0-12.71-1.68q-8.6,0-13.57,3t-5,7.72a6.25,6.25,0,0,0,2.12,4.8,15.94,15.94,0,0,0,5.36,3.11c2.16.79,5.19,1.73,9.09,2.8a103.56,103.56,0,0,1,13.7,4.55,24.91,24.91,0,0,1,9.16,6.73q3.8,4.42,3.8,11.65a25.4,25.4,0,0,1-5,15.63,32.14,32.14,0,0,1-14.08,10.34,56.25,56.25,0,0,1-21.18,3.67A70.73,70.73,0,0,1,19.27,149.79Z"/><path class="cls-3" d="M122.41,80,118.67,99h40.49L156,114.66H115.43l-4,20.18H159L155.67,151H88.15l17.44-87.2h65.9L168.12,80Z"/><path class="cls-3" d="M269.15,63.84,251.71,151H235.14L202.63,96.48l-11,54.56H171.74l17.44-87.2h16.69l32.51,54.68,10.84-54.68Z"/><path class="cls-3" d="M289.83,63.84h36.5q13.32,0,23,4.42A33.43,33.43,0,0,1,364.13,80.9a35.51,35.51,0,0,1,5.17,19.31q0,15.21-6.85,26.72a46.35,46.35,0,0,1-19.12,17.82Q331.06,151,315,151h-42.6Zm25.78,70.63a35.17,35.17,0,0,0,17.75-4.3,29,29,0,0,0,11.53-11.83,35.91,35.91,0,0,0,4-17q0-9.84-6.35-15.38t-18.44-5.54H306.77l-10.84,54.06Z"/><path class="cls-3" d="M409.54,80,405.8,99h40.48l-3.11,15.69H402.56l-4,20.18h47.59L442.8,151H375.28l17.44-87.2h65.9L455.25,80Z"/><path class="cls-3" d="M520.9,132.35H480.29L469,151H447.4l56.43-87.2h19.94L545.19,151H525ZM517.54,117,510.19,83.4,489.63,117Z"/><path class="cls-3" d="M638,76.92l-58.67,57.67h48.83L624.79,151H548.55L551.17,138,610,80.28H564l3.36-16.44h73.25Z"/><path class="cls-3" d="M672.12,80,668.39,99h40.48l-3.11,15.69H665.15l-4,20.18h47.59L705.38,151H637.87l17.44-87.2h65.9L717.84,80Z"/><path class="cls-3" d="M25.67,186.65H17.3L16.07,193h9.74l-.39,1.93H13.13L16.59,177H28.75L28.36,179H18.78l-1.11,5.77H26Z"/><path class="cls-3" d="M46.65,194.93H44.16L37.05,181l-2.68,13.9H31.79L35.25,177h2.49l7.12,14,2.69-14h2.56Z"/><path class="cls-3" d="M54.37,194.93,57.83,177,63,177a7.76,7.76,0,0,1,4.19,1.09,6.16,6.16,0,0,1,2.52,3,8.53,8.53,0,0,1,.45,4.32l-.14.89a9.8,9.8,0,0,1-3.37,6.25,10.5,10.5,0,0,1-7,2.33ZM60,179l-2.71,14h2.53a7.53,7.53,0,0,0,4.91-1.63,7.45,7.45,0,0,0,2.62-4.45,13.05,13.05,0,0,0,.33-3.85,4.53,4.53,0,0,0-1.41-3A4.84,4.84,0,0,0,63.07,179Z"/><path class="cls-3" d="M80.94,188.25H74.45l.37-1.86h6.49Z"/><path class="cls-3" d="M101.57,179h-6.2l-3.07,16H89.74l3.08-16h-6.2L87,177H102Z"/><path class="cls-3" d="M111.48,195.18a7,7,0,0,1-3.31-.83A5.49,5.49,0,0,1,106,192a7.93,7.93,0,0,1-.89-3.44,14.56,14.56,0,0,1,.37-3.68A12,12,0,0,1,107,181a9.2,9.2,0,0,1,2.7-2.81,8.38,8.38,0,0,1,4.89-1.38,6.22,6.22,0,0,1,4.6,1.81,7.08,7.08,0,0,1,1.8,4.78,15.81,15.81,0,0,1-.29,3.29,12.72,12.72,0,0,1-1.25,3.7,9.23,9.23,0,0,1-2.27,2.87A8.39,8.39,0,0,1,111.48,195.18Zm7-11.25a5.71,5.71,0,0,0-.94-3.76,3.73,3.73,0,0,0-3-1.38,5.55,5.55,0,0,0-3.27.88,6.89,6.89,0,0,0-2.37,2.8,13.26,13.26,0,0,0-1.17,4.72l0,.8a5.76,5.76,0,0,0,1,3.78,3.67,3.67,0,0,0,3,1.41,5.54,5.54,0,0,0,4.28-1.68,9.08,9.08,0,0,0,2.27-4.89A20.65,20.65,0,0,0,118.46,183.93Z"/><path class="cls-3" d="M131.61,188.25h-6.5l.37-1.86H132Z"/><path class="cls-3" d="M148.34,186.65H140L138.74,193h9.73l-.38,1.93H135.8L139.26,177h12.15L151,179h-9.58l-1.11,5.77h8.37Z"/><path class="cls-3" d="M169.32,194.93h-2.49L159.72,181,157,194.93h-2.58L157.92,177h2.48l7.13,14,2.69-14h2.56Z"/><path class="cls-3" d="M177,194.93,180.5,177l5.16,0a7.74,7.74,0,0,1,4.19,1.09,6.13,6.13,0,0,1,2.53,3,8.53,8.53,0,0,1,.45,4.32l-.14.89a9.76,9.76,0,0,1-3.38,6.25,10.48,10.48,0,0,1-7,2.33Zm5.64-16L180,193h2.53a7.53,7.53,0,0,0,4.91-1.63,7.45,7.45,0,0,0,2.62-4.45,13.05,13.05,0,0,0,.33-3.85,4.53,4.53,0,0,0-1.41-3,4.87,4.87,0,0,0-3.23-1.12Z"/><path class="cls-3" d="M222.21,189.22a7,7,0,0,1-2.79,4.41,8.5,8.5,0,0,1-5.33,1.55,6.84,6.84,0,0,1-3.23-.82,5.35,5.35,0,0,1-2.14-2.25,7.69,7.69,0,0,1-.85-3.26,9.2,9.2,0,0,1,.1-2l.23-1.47a10.69,10.69,0,0,1,3.15-6.37,8.39,8.39,0,0,1,6.1-2.27,6.29,6.29,0,0,1,4.45,1.63,6.09,6.09,0,0,1,1.73,4.39h-2.55q-.18-3.76-3.28-4.07l-.46,0a5.53,5.53,0,0,0-4.31,1.73,8.84,8.84,0,0,0-2.23,4.89l-.3,1.86-.09,1.08a5.65,5.65,0,0,0,.9,3.6,3.47,3.47,0,0,0,2.9,1.38,5.45,5.45,0,0,0,3.44-.89,5.88,5.88,0,0,0,2.07-3.09Z"/><path class="cls-3" d="M235.24,195.18a7,7,0,0,1-3.31-.83,5.49,5.49,0,0,1-2.2-2.32,7.93,7.93,0,0,1-.89-3.44,14.56,14.56,0,0,1,.37-3.68,11.83,11.83,0,0,1,1.56-3.95,9.05,9.05,0,0,1,2.69-2.81,8.38,8.38,0,0,1,4.89-1.38,6.22,6.22,0,0,1,4.6,1.81,7.08,7.08,0,0,1,1.8,4.78,15.81,15.81,0,0,1-.29,3.29,12.44,12.44,0,0,1-1.25,3.7,9.23,9.23,0,0,1-2.27,2.87A8.39,8.39,0,0,1,235.24,195.18Zm7-11.25a5.71,5.71,0,0,0-.94-3.76,3.71,3.71,0,0,0-3.05-1.38,5.55,5.55,0,0,0-3.27.88,6.89,6.89,0,0,0-2.37,2.8,13.47,13.47,0,0,0-1.17,4.72l0,.8a5.76,5.76,0,0,0,1,3.78,3.67,3.67,0,0,0,3,1.41,5.54,5.54,0,0,0,4.28-1.68,9.08,9.08,0,0,0,2.27-4.89A20.65,20.65,0,0,0,242.22,183.93Z"/><path class="cls-3" d="M252.79,193H262l-.39,1.93H249.83L253.29,177h2.58Z"/><path class="cls-3" d="M267.67,194.93,271.13,177l5.16,0a7.8,7.8,0,0,1,4.2,1.09,6.16,6.16,0,0,1,2.52,3,8.53,8.53,0,0,1,.45,4.32l-.14.89A9.8,9.8,0,0,1,280,192.6a10.51,10.51,0,0,1-7,2.33Zm5.64-16-2.7,14h2.53a7.53,7.53,0,0,0,4.91-1.63,7.45,7.45,0,0,0,2.62-4.45,13.05,13.05,0,0,0,.33-3.85,4.53,4.53,0,0,0-1.41-3,4.87,4.87,0,0,0-3.23-1.12Z"/><path class="cls-3" d="M308.85,190.32c.2-1.32-.56-2.28-2.27-2.88l-2.36-.78-.8-.31q-4-1.64-3.73-4.6a4.51,4.51,0,0,1,1.14-2.63,6.47,6.47,0,0,1,2.64-1.77,9.32,9.32,0,0,1,3.51-.58,7.73,7.73,0,0,1,3.22.72,5,5,0,0,1,2.15,1.93,4.86,4.86,0,0,1,.66,2.79l-2.59,0a3,3,0,0,0-.82-2.56,3.94,3.94,0,0,0-2.73-.93,5.5,5.5,0,0,0-3.13.79,3,3,0,0,0-1.45,2.22c-.18,1.22.65,2.15,2.5,2.78l2,.66,1,.39q3.86,1.61,3.57,4.75a4.55,4.55,0,0,1-1.13,2.62,6.41,6.41,0,0,1-2.68,1.7,10.24,10.24,0,0,1-3.63.57,8.31,8.31,0,0,1-3.42-.72,5.46,5.46,0,0,1-2.36-1.94,4.48,4.48,0,0,1-.71-2.8l2.57,0a2.9,2.9,0,0,0,1,2.54,4.6,4.6,0,0,0,3.07,1,6,6,0,0,0,3.27-.77A3,3,0,0,0,308.85,190.32Z"/><path class="cls-3" d="M333.44,179h-6.19l-3.08,16h-2.56l3.08-16H318.5l.38-1.94h14.94Z"/><path class="cls-3" d="M343.35,195.18a6.89,6.89,0,0,1-3.3-.83,5.51,5.51,0,0,1-2.21-2.32,7.93,7.93,0,0,1-.89-3.44,14.56,14.56,0,0,1,.37-3.68,11.83,11.83,0,0,1,1.56-3.95,9.17,9.17,0,0,1,2.69-2.81,8.38,8.38,0,0,1,4.89-1.38,6.21,6.21,0,0,1,4.6,1.81,7.08,7.08,0,0,1,1.8,4.78,15.81,15.81,0,0,1-.29,3.29,12.71,12.71,0,0,1-1.24,3.7,9.4,9.4,0,0,1-2.28,2.87A8.39,8.39,0,0,1,343.35,195.18Zm7-11.25a5.71,5.71,0,0,0-.94-3.76,3.71,3.71,0,0,0-3.05-1.38,5.55,5.55,0,0,0-3.27.88,7,7,0,0,0-2.37,2.8,13.47,13.47,0,0,0-1.17,4.72l0,.8a5.82,5.82,0,0,0,1,3.78,3.67,3.67,0,0,0,3,1.41,5.57,5.57,0,0,0,4.29-1.68,9.08,9.08,0,0,0,2.26-4.89A19,19,0,0,0,350.33,183.93Z"/><path class="cls-3" d="M366.5,187.69h-4.59l-1.4,7.24h-2.58L361.39,177l6,0a7.15,7.15,0,0,1,4.77,1.43,4.2,4.2,0,0,1,1.38,3.85,4.81,4.81,0,0,1-1.36,3,7.43,7.43,0,0,1-3.22,1.93l3.09,7.56v.16h-2.74Zm-4.22-1.94h3.77a5.65,5.65,0,0,0,3.32-.94A3.59,3.59,0,0,0,371,182.3a2.7,2.7,0,0,0-.68-2.41,3.9,3.9,0,0,0-2.71-.92h-4Z"/><path class="cls-3" d="M390.42,186.65h-8.36L380.83,193h9.73l-.38,1.93H377.89L381.34,177H393.5l-.38,1.94h-9.59l-1.11,5.77h8.37Z"/><path class="cls-3" d="M405.51,194.93,409,177l5.17,0a7.76,7.76,0,0,1,4.19,1.09,6.24,6.24,0,0,1,2.53,3,8.53,8.53,0,0,1,.45,4.32l-.14.89a9.81,9.81,0,0,1-3.38,6.25,10.48,10.48,0,0,1-7,2.33Zm5.64-16-2.71,14H411a7.36,7.36,0,0,0,7.54-6.08,13.05,13.05,0,0,0,.33-3.85,4.53,4.53,0,0,0-1.41-3A4.89,4.89,0,0,0,414.2,179Z"/><path class="cls-3" d="M439.08,186.65h-8.37L429.48,193h9.73l-.38,1.93H426.54L430,177h12.15l-.38,1.94h-9.58l-1.11,5.77h8.37Z"/><path class="cls-3" d="M448.15,193h9.16l-.38,1.93H445.2L448.66,177h2.58Z"/><path class="cls-3" d="M465.78,194.93h-2.55L466.68,177h2.56Z"/><path class="cls-3" d="M480.68,191.77,488.76,177h2.9l-10.28,17.92h-2.27l-4-17.92h2.7Z"/><path class="cls-3" d="M506.68,186.65h-8.37L497.08,193h9.73l-.38,1.93H494.14L497.6,177h12.15l-.38,1.94h-9.58l-1.11,5.77h8.37Z"/><path class="cls-3" d="M521.36,187.69h-4.6l-1.39,7.24h-2.59L516.24,177l6,0a7.11,7.11,0,0,1,4.77,1.43,4.15,4.15,0,0,1,1.38,3.85,4.81,4.81,0,0,1-1.36,3,7.37,7.37,0,0,1-3.22,1.93l3.09,7.56v.16h-2.74Zm-4.23-1.94h3.77a5.68,5.68,0,0,0,3.33-.94,3.58,3.58,0,0,0,1.58-2.52,2.7,2.7,0,0,0-.68-2.41,3.89,3.89,0,0,0-2.71-.92h-4Z"/><path class="cls-3" d="M539.63,186l6.77-9h3.06l-8.93,11.36-1.27,6.56H536.7l1.32-6.82L533.57,177h2.79Z"/><path class="cls-3" d="M571.76,190.32c.2-1.32-.56-2.28-2.27-2.88l-2.36-.78-.8-.31q-4-1.64-3.73-4.6a4.51,4.51,0,0,1,1.14-2.63,6.47,6.47,0,0,1,2.64-1.77,9.32,9.32,0,0,1,3.51-.58,7.73,7.73,0,0,1,3.22.72,5,5,0,0,1,2.15,1.93,4.86,4.86,0,0,1,.66,2.79l-2.59,0a3,3,0,0,0-.82-2.56,3.94,3.94,0,0,0-2.73-.93,5.5,5.5,0,0,0-3.13.79,3,3,0,0,0-1.45,2.22c-.18,1.22.65,2.15,2.5,2.78l2,.66,1,.39q3.86,1.61,3.57,4.75a4.55,4.55,0,0,1-1.13,2.62,6.41,6.41,0,0,1-2.68,1.7,10.24,10.24,0,0,1-3.63.57,8.31,8.31,0,0,1-3.42-.72,5.46,5.46,0,0,1-2.36-1.94,4.48,4.48,0,0,1-.71-2.8l2.57,0a2.9,2.9,0,0,0,1,2.54,4.6,4.6,0,0,0,3.07,1,6,6,0,0,0,3.27-.77A3,3,0,0,0,571.76,190.32Z"/><path class="cls-3" d="M587.22,195.18a6.89,6.89,0,0,1-3.3-.83,5.51,5.51,0,0,1-2.21-2.32,7.93,7.93,0,0,1-.89-3.44,15,15,0,0,1,.37-3.68,11.83,11.83,0,0,1,1.56-3.95,9.17,9.17,0,0,1,2.69-2.81,8.39,8.39,0,0,1,4.9-1.38,6.2,6.2,0,0,1,4.59,1.81,7.08,7.08,0,0,1,1.8,4.78,15.81,15.81,0,0,1-.29,3.29,12.71,12.71,0,0,1-1.24,3.7,9.4,9.4,0,0,1-2.28,2.87A8.35,8.35,0,0,1,587.22,195.18Zm7-11.25a5.71,5.71,0,0,0-.94-3.76,3.71,3.71,0,0,0-3-1.38,5.55,5.55,0,0,0-3.27.88,7,7,0,0,0-2.37,2.8,13.47,13.47,0,0,0-1.17,4.72l0,.8a5.82,5.82,0,0,0,1,3.78,3.67,3.67,0,0,0,3,1.41,5.57,5.57,0,0,0,4.29-1.68,9.08,9.08,0,0,0,2.26-4.89A19,19,0,0,0,594.2,183.93Z"/><path class="cls-3" d="M604.77,193h9.16l-.39,1.93H601.81L605.27,177h2.59Z"/><path class="cls-3" d="M636,177l-2.29,12.13a6.73,6.73,0,0,1-2.68,4.44,8.44,8.44,0,0,1-5.35,1.61,7.58,7.58,0,0,1-3.4-.8,4.73,4.73,0,0,1-2.12-2.12,5.23,5.23,0,0,1-.45-3.12L622,177h2.53l-2.28,12.16a3.61,3.61,0,0,0,.71,3,3.76,3.76,0,0,0,2.86,1.13,5.25,5.25,0,0,0,3.5-1,4.76,4.76,0,0,0,1.8-3.06l2.3-12.17Z"/><path class="cls-3" d="M656.18,179H650l-3.07,16h-2.56l3.08-16h-6.2l.39-1.94h14.94Z"/><path class="cls-3" d="M661.91,194.93h-2.55L662.82,177h2.55Z"/><path class="cls-3" d="M677.07,195.18a6.89,6.89,0,0,1-3.3-.83,5.51,5.51,0,0,1-2.21-2.32,8.07,8.07,0,0,1-.89-3.44,15,15,0,0,1,.37-3.68A11.83,11.83,0,0,1,672.6,181a9.29,9.29,0,0,1,2.69-2.81,8.39,8.39,0,0,1,4.9-1.38,6.2,6.2,0,0,1,4.59,1.81,7.14,7.14,0,0,1,1.81,4.78,16.66,16.66,0,0,1-.3,3.29,12.71,12.71,0,0,1-1.24,3.7,9.4,9.4,0,0,1-2.28,2.87A8.35,8.35,0,0,1,677.07,195.18Zm7-11.25a5.71,5.71,0,0,0-.95-3.76,3.71,3.71,0,0,0-3.05-1.38,5.55,5.55,0,0,0-3.27.88,7,7,0,0,0-2.37,2.8,13.27,13.27,0,0,0-1.16,4.72l0,.8a5.82,5.82,0,0,0,1,3.78,3.67,3.67,0,0,0,3,1.41,5.56,5.56,0,0,0,4.29-1.68,9.08,9.08,0,0,0,2.26-4.89A20.86,20.86,0,0,0,684.06,183.93Z"/><path class="cls-3" d="M706.53,194.93H704L696.93,181l-2.68,13.9h-2.58L695.12,177h2.49l7.13,14,2.69-14H710Z"/></svg>